# xmcd
#
# Track frame offsets:
#	150
#	10889
#	23828
#	39408
#	51381
#	62118
#	72353
#	83770
#	96988
#	106497
#	120495
#	131953
#	142068
#	153715
#	164575
#	179001
#	191853
#	205505
#	216189
#	229562
#	241138
#	254590
#	264972
#	277844
#	292652
#	301696
#	315292
#	328403
#
# Disc length: 4536 seconds
# Revision: 1
# Processed by: cddbd v1.5.2PL0 Copyright (c) Steve Scherf et al.
# Submitted via: dBpowerAMP V12.0
#
DISCID=9a11b61c
DTITLE=Various Artist - Jook Joint Blues
DYEAR=1956
DGENRE=Blues
TTITLE0=Eddie Hope and The Mannish Boys - A Fool No More
TTITLE1=Blues Rockers - Johnny Mae
TTITLE2=L.B. Lawson - Got My Call Card
TTITLE3=Frank Edwards - Love My Baby
TTITLE4=Papa Lightfoot - Jump The Boogie
TTITLE5=Country Jim - One Thing My Baby Likes
TTITLE6=Little Willie Cotton - A Dream
TTITLE7=Good Rockin' Beasley - Happy Go Lucky
TTITLE8=Lightnin' Slim - Bugger Bugger Boy
TTITLE9=Earl Hooker - Sweet Angel
TTITLE10=Jerry McCain - You Don't Love Me No More
TTITLE11=Mercy Dee - My Woman Knows The Score
TTITLE12=Little Sam Davis - Goin' Home To Mother
TTITLE13=Pee Wee Hughes - Santa Fe Blues
TTITLE14=Joe Hill Louis - Tiger Man
TTITLE15=John Lee - Alabama Boogie
TTITLE16=Coy ''Hot Shot'' Love - Wolf Call Boogie
TTITLE17=Guitar Gable - Congo Mombo
TTITLE18=Ernest McClay - Big Time Woman
TTITLE19=Dennis McMillon - Paper Wooden Daddy
TTITLE20=Honeyboy - Bloodstains On The Wall
TTITLE21=Duke Bayou - Rub A Little Boogie
TTITLE22=Lost John Hunter - Schoolboy
TTITLE23=Lightnin' Slim - Ethel Mae
TTITLE24=Jerry Perkins - Knocking The Boogie
TTITLE25=Little Milton Anderson - Mistreated Baby Blues
TTITLE26=Sonny Boy Holmes - The 64 Dollar Question
TTITLE27=Alex Moore - If I Lose You Woman
EXTD=
EXTT0=
EXTT1=
EXTT2=
EXTT3=
EXTT4=
EXTT5=
EXTT6=
EXTT7=
EXTT8=
EXTT9=
EXTT10=
EXTT11=
EXTT12=
EXTT13=
EXTT14=
EXTT15=
EXTT16=
EXTT17=
EXTT18=
EXTT19=
EXTT20=
EXTT21=
EXTT22=
EXTT23=
EXTT24=
EXTT25=
EXTT26=
EXTT27=
PLAYORDER=
